# xmcd
#
# Track frame offsets:
#	150
#	14761
#	24835
#	33412
#	39505
#	54254
#	63208
#	70990
#	78937
#	88639
#	105133
#	113641
#	124636
#	128519
#	156433
#	171828
#	190271
#	198508
#	221130
#	248339
#
# Disc length: 3555 seconds
#
# Revision: 2
# Processed by: cddbd v1.5.2PL0 Copyright (c) Steve Scherf et al.
# Submitted via: EZCDDA 4.3.2
#
DISCID=fd0de114
DTITLE=Cantece ale romanilor din Ungaria - Inflorit-o Rugutu...
DYEAR=1900
DGENRE=
TTITLE0=Mai Ioane
TTITLE1=Buna dimineata, nana
TTITLE2=Si-a mea mandra-i banateana
TTITLE3=Vino mandra-n joc
TTITLE4=Vasalie
TTITLE5=Lele dunareanca
TTITLE6=Alesandrule
TTITLE7=Inflorit-o rugutu
TTITLE8=Am un par cu pere
TTITLE9=Barbatelul meu, Frunza verde de nucut
TTITLE10=Mandrulita mea frumoasa
TTITLE11=Joc din Cenadu-Unguresc
TTITLE12=Num-atata stiu ca-i vara
TTITLE13=Auzit-am..., Anaida si danaida, Suparat badea de-aseara...
TTITLE14=Batranete
TTITLE15=Asara-n gradina
TTITLE16=Inima de ce nu mori...
TTITLE17=Cantece de nunta din Micherechi
TTITLE18=Joc din Micherechi
TTITLE19=Cantec de leagan
EXTD=
EXTT0=
EXTT1=
EXTT2=
EXTT3=
EXTT4=
EXTT5=
EXTT6=
EXTT7=
EXTT8=
EXTT9=
EXTT10=
EXTT11=
EXTT12=
EXTT13=
EXTT14=
EXTT15=
EXTT16=
EXTT17=
EXTT18=
EXTT19=
PLAYORDER=
